<svg width="512" height="512" viewBox="0 0 512 512" fill="none" xmlns="http://www.w3.org/2000/svg">
  <defs>
    <linearGradient id="bg" x1="64" y1="32" x2="448" y2="480" gradientUnits="userSpaceOnUse">
      <stop stop-color="#10172E"/>
      <stop offset="1" stop-color="#0A0D17"/>
    </linearGradient>
    <linearGradient id="track" x1="88" y1="408" x2="424" y2="168" gradientUnits="userSpaceOnUse">
      <stop stop-color="#F59E0B"/>
      <stop offset="1" stop-color="#FCD34D"/>
    </linearGradient>
    <linearGradient id="runner" x1="290" y1="130" x2="374" y2="246" gradientUnits="userSpaceOnUse">
      <stop stop-color="#F8FAFC"/>
      <stop offset="1" stop-color="#E2E8F0"/>
    </linearGradient>
  </defs>

  <rect x="24" y="24" width="464" height="464" rx="108" fill="url(#bg)"/>

  <path d="M96 366C166 400 246 404 316 378C367 359 410 324 438 280" stroke="url(#track)" stroke-width="26" stroke-linecap="round"/>
  <path d="M82 430C172 468 282 464 374 412C422 385 460 346 482 296" stroke="#F59E0B" stroke-opacity="0.3" stroke-width="14" stroke-linecap="round"/>

  <circle cx="332" cy="146" r="34" fill="url(#runner)"/>
  <path d="M258 246L312 200C321 192 335 192 344 200L386 236" stroke="url(#runner)" stroke-width="24" stroke-linecap="round" stroke-linejoin="round"/>
  <path d="M306 198L286 266" stroke="url(#runner)" stroke-width="24" stroke-linecap="round"/>
  <path d="M342 206L402 186" stroke="url(#runner)" stroke-width="24" stroke-linecap="round"/>
  <path d="M286 268L230 338" stroke="url(#runner)" stroke-width="24" stroke-linecap="round"/>
  <path d="M350 244L410 304" stroke="url(#runner)" stroke-width="24" stroke-linecap="round"/>

  <path d="M126 112L167 86L162 133" fill="#F59E0B"/>
  <path d="M125 113C194 78 279 79 347 114" stroke="#F59E0B" stroke-width="10" stroke-linecap="round"/>
</svg>
